# xmcd
#
# Track frame offsets:
#	150
#	15522
#	27207
#	41710
#	52722
#	61640
#	71937
#	82987
#	93335
#	103520
#	113782
#	124242
#	137270
#	147330
#	157805
#	172575
#	184152
#	197945
#	210740
#	224315
#
# Disc length: 3149 seconds
#
# Revision: 0
# Processed by: cddbd v1.4PL0 Copyright (c) Steve Scherf et al.
# Submitted via: dBpowerAMP V4.0
#
DISCID=080c4b14
DTITLE=Don Gibson - 20 Greatest Hits
DYEAR=2003
DGENRE=Country
TTITLE0=Sweet Dream
TTITLE1=Oh Lonesome Me
TTITLE2=I Can't Stop Loving You
TTITLE3=Give Myself A Party
TTITLE4=Blue Blue Day
TTITLE5=Look Who's Blue
TTITLE6=Who Cares
TTITLE7=Just One Time
TTITLE8=Sea Of Heartbreak
TTITLE9=Lonesome Nu,ber One
TTITLE10=Funny Familiar Forgotten Feelings
TTITLE11=Rings Of Gold
TTITLE12=Country Green
TTITLE13=Far Far Away
TTITLE14=Woman
TTITLE15=Is This The Best I'm Gonna Feel
TTITLE16=Touch Me In THe Morning
TTITLE17=Snap Your Fingers
TTITLE18=One Day At A Time
TTITLE19=Bring Back Your Love To Me
EXTD=Don Gibson 20 Greatest HIts
EXTT0=
EXTT1=
EXTT2=
EXTT3=
EXTT4=
EXTT5=
EXTT6=
EXTT7=
EXTT8=
EXTT9=
EXTT10=
EXTT11=
EXTT12=
EXTT13=
EXTT14=
EXTT15=
EXTT16=
EXTT17=
EXTT18=
EXTT19=
PLAYORDER=
